<svg xmlns="http://www.w3.org/2000/svg" width="1080" height="1080" viewBox="0 0 1080 1080">
  <defs>
    <linearGradient id="gold" x1="0" x2="1" y1="0" y2="1">
      <stop offset="0" stop-color="#fff0b6" stop-opacity=".85"/>
      <stop offset=".42" stop-color="#f8c65b" stop-opacity=".52"/>
      <stop offset="1" stop-color="#8f5b13" stop-opacity=".42"/>
    </linearGradient>
  </defs>
  <g fill="none" stroke="url(#gold)" stroke-linecap="round">
    <path d="M96 170 C210 96 336 72 502 82" stroke-width="5" opacity=".62"/>
    <path d="M980 172 C860 96 724 68 556 82" stroke-width="5" opacity=".62"/>
    <path d="M82 232 C170 160 322 126 478 134" stroke-width="2" opacity=".48"/>
    <path d="M998 232 C910 160 758 126 602 134" stroke-width="2" opacity=".48"/>
    <path d="M126 930 C260 986 416 1012 540 1004 C664 1012 820 986 954 930" stroke-width="5" opacity=".55"/>
  </g>
  <g fill="url(#gold)" opacity=".68">
    <circle cx="96" cy="170" r="6"/><circle cx="980" cy="172" r="6"/><circle cx="126" cy="930" r="5"/><circle cx="954" cy="930" r="5"/>
  </g>
</svg>
