<?xml version="1.0" encoding="UTF-8"?>
<svg id="Layer_1" data-name="Layer 1" xmlns="http://www.w3.org/2000/svg" viewBox="0 0 156.18 165.39">
  <defs>
    <style>
      .cls-1 {
        fill: #160d3b;
        stroke-width: 0px;
      }
    </style>
  </defs>
  <path class="cls-1" d="m22.89,13.33c-.23,3.04-.35,6.11-.35,9.2,0,66.34,53.97,120.31,120.31,120.31v9.2c-17.48,0-34.45-3.42-50.42-10.18-15.42-6.52-29.27-15.86-41.17-27.75-11.89-11.89-21.23-25.74-27.76-41.17-6.75-15.97-10.18-32.93-10.18-50.42,0-3.09.11-6.15.32-9.2h9.23M37.27,0H1.22L.35,12.41c-.23,3.37-.35,6.78-.35,10.13,0,19.28,3.78,37.99,11.23,55.61,7.2,17.01,17.49,32.29,30.61,45.4,13.11,13.11,28.39,23.41,45.4,30.61,17.62,7.45,36.33,11.23,55.61,11.23h13.33v-35.87h-13.33c-58.99,0-106.98-47.99-106.98-106.98,0-2.73.1-5.48.31-8.19l1.09-14.34h0Z"/>
</svg>