<?xml version="1.0" encoding="UTF-8"?>
<svg id="Layer_1" data-name="Layer 1" xmlns="http://www.w3.org/2000/svg" viewBox="0 0 331.72 39.14">
  <defs>
    <style>
      .cls-1 {
        stroke-width: 0px;
      }
    </style>
  </defs>
  <polygon class="cls-1" points="28.01 0 0 0 16.67 19.57 0 39.14 28.01 39.14 44.68 19.57 28.01 0"/>
  <polygon class="cls-1" points="69.01 0 41.01 0 57.67 19.57 41.01 39.14 69.01 39.14 85.68 19.57 69.01 0"/>
  <polygon class="cls-1" points="110.02 0 82.01 0 98.68 19.57 82.01 39.14 110.02 39.14 126.69 19.57 110.02 0"/>
  <polygon class="cls-1" points="151.03 0 123.02 0 139.69 19.57 123.02 39.14 151.03 39.14 167.69 19.57 151.03 0"/>
  <polygon class="cls-1" points="192.03 0 164.02 0 180.69 19.57 164.02 39.14 192.03 39.14 208.7 19.57 192.03 0"/>
  <polygon class="cls-1" points="233.04 0 205.03 0 221.7 19.57 205.03 39.14 233.04 39.14 249.7 19.57 233.04 0"/>
  <polygon class="cls-1" points="274.04 0 246.03 0 262.7 19.57 246.03 39.14 274.04 39.14 290.71 19.57 274.04 0"/>
  <polygon class="cls-1" points="315.05 0 287.04 0 303.71 19.57 287.04 39.14 315.05 39.14 331.72 19.57 315.05 0"/>
</svg>