<?xml version="1.0" encoding="UTF-8"?>
<svg id="Layer_1" data-name="Layer 1" xmlns="http://www.w3.org/2000/svg" viewBox="0 0 277 203.68">
  <defs>
    <style>
      .cls-1 {
        fill: #231f20;
        stroke-width: 0px;
      }
    </style>
  </defs>
  <g>
    <g>
      <path class="cls-1" d="m32.3,157.03c-2.6-1.52-5.55-.47-7.16,1.88-4.56,6.62-8.4,13.72-11.27,21.2-1.22-3.85-2.46-7.69-3.58-11.58-.79-2.74-3.66-4.42-6.44-3.65-2.72.75-4.44,3.7-3.66,6.44,2.75,9.55,6.25,18.88,8.37,28.61.75,3.46,4.83,4.6,7.69,3.13,3.64-1.87,6.8-4.56,9.86-7.25,1.52-1.33,3.02-2.67,4.6-3.94-.34.25-.26.19.24-.18.44-.33.88-.63,1.33-.94.9-.61,1.84-1.15,2.81-1.65,2.53-1.3,3.26-4.8,1.88-7.16-1.5-2.56-4.62-3.18-7.16-1.88-2.28,1.17-4.36,2.66-6.35,4.27,2.65-7.07,6.22-13.6,10.72-20.13,1.62-2.35.45-5.8-1.88-7.16Z"/>
      <path class="cls-1" d="m53.59,131.34c-1.88-1.88-5.57-2.19-7.4,0l-10.47,12.56c-1.82,2.19-2.15,5.25,0,7.4,1.88,1.88,5.57,2.19,7.4,0l10.47-12.56c1.82-2.19,2.15-5.25,0-7.4Z"/>
    </g>
    <g>
      <path class="cls-1" d="m32.3,157.03c-2.6-1.52-5.55-.47-7.16,1.88-4.56,6.62-8.4,13.72-11.27,21.2-1.22-3.85-2.46-7.69-3.58-11.58-.79-2.74-3.66-4.42-6.44-3.65-2.72.75-4.44,3.7-3.66,6.44,2.75,9.55,6.25,18.88,8.37,28.61.75,3.46,4.83,4.6,7.69,3.13,3.64-1.87,6.8-4.56,9.86-7.25,1.52-1.33,3.02-2.67,4.6-3.94-.34.25-.26.19.24-.18.44-.33.88-.63,1.33-.94.9-.61,1.84-1.15,2.81-1.65,2.53-1.3,3.26-4.8,1.88-7.16-1.5-2.56-4.62-3.18-7.16-1.88-2.28,1.17-4.36,2.66-6.35,4.27,2.65-7.07,6.22-13.6,10.72-20.13,1.62-2.35.45-5.8-1.88-7.16Z"/>
      <path class="cls-1" d="m53.59,131.34c-1.88-1.88-5.57-2.19-7.4,0l-10.47,12.56c-1.82,2.19-2.15,5.25,0,7.4,1.88,1.88,5.57,2.19,7.4,0l10.47-12.56c1.82-2.19,2.15-5.25,0-7.4Z"/>
    </g>
  </g>
  <path class="cls-1" d="m76.56,106.8c-6.54,4.32-13.55,7.82-19.2,13.38-2.03,2-2,5.4,0,7.4,2.03,2.03,5.37,2,7.4,0,4.83-4.75,11.19-7.85,17.08-11.74,2.37-1.57,3.38-4.6,1.88-7.16-1.38-2.36-4.78-3.45-7.16-1.88Z"/>
  <path class="cls-1" d="m109.35,88.66c-6.08,2.71-12.06,5.66-18.14,8.37-2.61,1.16-3.2,4.9-1.88,7.16,1.56,2.66,4.55,3.04,7.16,1.88,6.08-2.71,12.06-5.66,18.14-8.37,2.61-1.16,3.2-4.9,1.88-7.16-1.56-2.66-4.55-3.04-7.16-1.88Z"/>
  <path class="cls-1" d="m137.71,78.29c-1.39.36-2.77.74-4.16,1.1-1.25.32-3.31.78-4.11.87-2.83.35-5.23,2.12-5.23,5.23,0,2.59,2.39,5.58,5.23,5.23,3.37-.41,6.59-1.16,9.87-2.03,3.01-.81,5.49-1.41,8.27-1.45,2.85-.04,5.23-2.35,5.23-5.23s-2.38-5.27-5.23-5.23c-3.34.05-6.64.69-9.87,1.51Z"/>
  <path class="cls-1" d="m181.07,74.18c-2.46.58-4.56.67-7.33.69-2.91.01-5.81-.16-8.72-.17-6.75-.03-6.75,10.44,0,10.47,6.32.03,12.61.58,18.83-.88,2.78-.65,4.39-3.77,3.65-6.44-.78-2.82-3.66-4.31-6.44-3.65Z"/>
  <path class="cls-1" d="m219.07,90.24c1.36-2.32.69-5.91-1.88-7.16-6.17-3-12.76-3.96-19.39-5.41-2.78-.61-5.65.8-6.44,3.65-.73,2.64.87,5.83,3.65,6.44,2.9.63,5.82,1.15,8.72,1.78,2.83.61,5.87,1.46,8.17,2.58,2.57,1.25,5.64.72,7.16-1.88Z"/>
  <path class="cls-1" d="m231.85,92.84c-2.55-1.27-5.65-.71-7.16,1.88-1.37,2.33-.68,5.89,1.88,7.16,2.89,1.43,5.82,2.77,8.66,4.31,1.44.79,2.83,1.66,4.17,2.61.51.37.58.43.22.16.27.22.54.45.81.69.66.58,1.26,1.21,1.84,1.87,1.89,2.14,5.48,1.92,7.4,0,2.11-2.11,1.89-5.26,0-7.4-4.75-5.38-11.52-8.16-17.8-11.28Z"/>
  <path class="cls-1" d="m263.76,134.89c1.58,2.37,4.59,3.38,7.16,1.88,2.35-1.38,3.46-4.78,1.88-7.16-3.01-4.51-6.07-9.04-9.89-12.92-2-2.03-5.4-2-7.4,0-2.03,2.03-2,5.37,0,7.4,3.28,3.34,5.61,6.85,8.25,10.8Z"/>
  <path class="cls-1" d="m277,160.16c-.04-4.22-.77-8.43-1.58-12.55-.55-2.8-3.84-4.37-6.44-3.65-2.9.8-4.21,3.64-3.65,6.44.71,3.6,1.17,6.15,1.21,9.77.03,2.85,2.36,5.23,5.23,5.23s5.26-2.38,5.23-5.23Z"/>
  <path class="cls-1" d="m259.06,189.79c4.48-2.82,7.56-7.19,10.25-11.65,1.47-2.44.56-5.73-1.88-7.16-2.49-1.46-5.69-.56-7.16,1.88-.46.76-.92,1.5-1.4,2.25-.3.46-.61.92-.93,1.37.04-.05-.58.78-.65.89-.53.66-1.11,1.3-1.7,1.91-.34.35-.71.67-1.08.99.43-.38-.71.47-.74.49-2.41,1.52-3.36,4.64-1.88,7.16,1.4,2.4,4.74,3.4,7.16,1.88Z"/>
  <path class="cls-1" d="m222.93,192.41c4.13.82,8.34,1.54,12.55,1.58,2.85.03,5.23-2.4,5.23-5.23s-2.38-5.2-5.23-5.23c-3.62-.04-6.17-.5-9.77-1.21-2.8-.55-5.64.76-6.44,3.65-.71,2.6.86,5.88,3.65,6.44Z"/>
  <path class="cls-1" d="m206.62,168.34c-1.37-1.54-2.51-3.14-3.59-5.24-1.31-2.53-4.8-3.26-7.16-1.88-2.55,1.5-3.19,4.63-1.88,7.16,2.43,4.69,6.19,8.52,9.89,12.22,2.02,2.02,5.38,2.02,7.4,0,2.02-2.02,2.02-5.38,0-7.4-1.59-1.59-3.17-3.18-4.66-4.86Z"/>
  <path class="cls-1" d="m183,150.38c.78,2.74,3.67,4.42,6.44,3.65,2.73-.75,4.44-3.7,3.65-6.44-1.38-4.83-2.75-9.67-3.49-14.65-.42-2.83-3.94-4.34-6.44-3.65-3,.82-4.08,3.62-3.65,6.44.74,4.98,2.11,9.82,3.49,14.65Z"/>
  <path class="cls-1" d="m185.6,117.6v-11.86c0-6.75-10.47-6.75-10.47,0v11.86c0,6.75,10.47,6.75,10.47,0Z"/>
  <path class="cls-1" d="m188.58,52.01c-1.34,3.92-3.16,7.52-5.05,11.31-1.28,2.55-.7,5.65,1.88,7.16,2.34,1.37,5.88.67,7.16-1.88,2.25-4.5,4.48-9.04,6.11-13.81.92-2.7-1.03-5.72-3.65-6.44-2.88-.79-5.52.96-6.44,3.65Z"/>
  <path class="cls-1" d="m204.57,23.19c-4.56,3.9-7.64,9.17-10.59,14.32-1.42,2.48-.6,5.71,1.88,7.16,2.44,1.43,5.75.6,7.16-1.88,2.69-4.7,4.98-8.8,8.95-12.2,2.17-1.86,1.9-5.5,0-7.4-2.13-2.13-5.23-1.85-7.4,0Z"/>
  <path class="cls-1" d="m221.74,19.43c4.14-3.45,7.92-6.76,12.2-9.65,2.36-1.59,3.39-4.58,1.88-7.16-1.37-2.34-4.79-3.47-7.16-1.88-5.04,3.4-9.66,7.4-14.32,11.28-2.19,1.83-1.88,5.52,0,7.4,2.15,2.15,5.21,1.83,7.4,0Z"/>
</svg>