<?xml version="1.0" encoding="UTF-8"?>
<svg id="Layer_1" data-name="Layer 1" xmlns="http://www.w3.org/2000/svg" viewBox="0 0 89.41 289.43">
  <defs>
    <style>
      .cls-1 {
        fill: #160d3b;
        stroke-width: 0px;
      }
    </style>
  </defs>
  <path class="cls-1" d="m44.7,13.63c17.13,0,31.07,13.94,31.07,31.07s-13.94,31.07-31.07,31.07-31.07-13.94-31.07-31.07,13.94-31.07,31.07-31.07m0-13.63C20.01,0,0,20.01,0,44.7s20.01,44.7,44.7,44.7,44.7-20.01,44.7-44.7S69.39,0,44.7,0h0Z"/>
  <path class="cls-1" d="m44.7,113.64c17.13,0,31.07,13.94,31.07,31.07s-13.94,31.07-31.07,31.07-31.07-13.94-31.07-31.07,13.94-31.07,31.07-31.07m0-13.63C20.01,100.01,0,120.03,0,144.72s20.01,44.7,44.7,44.7,44.7-20.01,44.7-44.7-20.01-44.7-44.7-44.7h0Z"/>
  <path class="cls-1" d="m44.7,213.65c17.13,0,31.07,13.94,31.07,31.07s-13.94,31.07-31.07,31.07-31.07-13.94-31.07-31.07,13.94-31.07,31.07-31.07m0-13.63C20.01,200.02,0,220.04,0,244.73s20.01,44.7,44.7,44.7,44.7-20.01,44.7-44.7-20.01-44.7-44.7-44.7h0Z"/>
</svg>