<?xml version="1.0" encoding="UTF-8"?>
<svg id="Layer_1" data-name="Layer 1" xmlns="http://www.w3.org/2000/svg" viewBox="0 0 50.16 295.18">
  <defs>
    <style>
      .cls-1 {
        fill: #160d3b;
        stroke-width: 0px;
      }
    </style>
  </defs>
  <g>
    <g>
      <circle class="cls-1" cx="39.31" cy="10.85" r="10.85" transform="translate(22.3 47.91) rotate(-80.78)"/>
      <path class="cls-1" d="m46.27,40.88c0,3.84-3.12,6.96-6.96,6.96s-6.96-3.12-6.96-6.96,3.12-6.96,6.96-6.96,6.96,3.12,6.96,6.96m3.89,0c0-5.99-4.86-10.85-10.85-10.85s-10.85,4.86-10.85,10.85,4.86,10.85,10.85,10.85,10.85-4.86,10.85-10.85h0Z"/>
    </g>
    <g>
      <circle class="cls-1" cx="39.31" cy="71.71" r="10.85" transform="translate(-39.19 48.8) rotate(-45)"/>
      <path class="cls-1" d="m46.27,101.75c0,3.84-3.12,6.96-6.96,6.96s-6.96-3.12-6.96-6.96,3.12-6.96,6.96-6.96,6.96,3.12,6.96,6.96m3.89,0c0-5.99-4.86-10.85-10.85-10.85s-10.85,4.86-10.85,10.85,4.86,10.85,10.85,10.85,10.85-4.86,10.85-10.85h0Z"/>
    </g>
    <g>
      <circle class="cls-1" cx="39.31" cy="132.57" r="10.85" transform="translate(-98.75 140.37) rotate(-76.72)"/>
      <path class="cls-1" d="m46.27,162.61c0,3.84-3.12,6.96-6.96,6.96s-6.96-3.12-6.96-6.96,3.12-6.96,6.96-6.96,6.96,3.12,6.96,6.96m3.89,0c0-5.99-4.86-10.85-10.85-10.85s-10.85,4.86-10.85,10.85,4.86,10.85,10.85,10.85,10.85-4.86,10.85-10.85h0Z"/>
    </g>
    <g>
      <circle class="cls-1" cx="39.31" cy="193.44" r="10.85" transform="translate(-157.93 201.25) rotate(-80.78)"/>
      <path class="cls-1" d="m46.27,223.47c0,3.84-3.12,6.96-6.96,6.96s-6.96-3.12-6.96-6.96,3.12-6.96,6.96-6.96,6.96,3.12,6.96,6.96m3.89,0c0-5.99-4.86-10.85-10.85-10.85s-10.85,4.86-10.85,10.85,4.86,10.85,10.85,10.85,10.85-4.86,10.85-10.85h0Z"/>
    </g>
    <g>
      <circle class="cls-1" cx="39.31" cy="254.3" r="10.85" transform="translate(-217.22 234.13) rotate(-76.72)"/>
      <path class="cls-1" d="m46.27,284.33c0,3.84-3.12,6.96-6.96,6.96s-6.96-3.12-6.96-6.96,3.12-6.96,6.96-6.96,6.96,3.12,6.96,6.96m3.89,0c0-5.99-4.86-10.85-10.85-10.85s-10.85,4.86-10.85,10.85,4.86,10.85,10.85,10.85,10.85-4.86,10.85-10.85h0Z"/>
    </g>
  </g>
  <g>
    <g>
      <circle class="cls-1" cx="10.85" cy="284.33" r="10.85"/>
      <path class="cls-1" d="m17.81,254.3c0,3.84-3.12,6.96-6.96,6.96s-6.96-3.12-6.96-6.96,3.12-6.96,6.96-6.96,6.96,3.12,6.96,6.96m3.89,0c0-5.99-4.86-10.85-10.85-10.85s-10.85,4.86-10.85,10.85,4.86,10.85,10.85,10.85,10.85-4.86,10.85-10.85h0Z"/>
    </g>
    <g>
      <circle class="cls-1" cx="10.85" cy="223.47" r="10.85"/>
      <path class="cls-1" d="m17.81,193.44c0,3.84-3.12,6.96-6.96,6.96s-6.96-3.12-6.96-6.96,3.12-6.96,6.96-6.96,6.96,3.12,6.96,6.96m3.89,0c0-5.99-4.86-10.85-10.85-10.85s-10.85,4.86-10.85,10.85,4.86,10.85,10.85,10.85,10.85-4.86,10.85-10.85h0Z"/>
    </g>
    <g>
      <circle class="cls-1" cx="10.85" cy="162.61" r="10.85"/>
      <path class="cls-1" d="m17.81,132.57c0,3.84-3.12,6.96-6.96,6.96s-6.96-3.12-6.96-6.96,3.12-6.96,6.96-6.96,6.96,3.12,6.96,6.96m3.89,0c0-5.99-4.86-10.85-10.85-10.85s-10.85,4.86-10.85,10.85,4.86,10.85,10.85,10.85,10.85-4.86,10.85-10.85h0Z"/>
    </g>
    <g>
      <circle class="cls-1" cx="10.85" cy="101.75" r="10.85"/>
      <path class="cls-1" d="m17.81,71.71c0,3.84-3.12,6.96-6.96,6.96s-6.96-3.12-6.96-6.96,3.12-6.96,6.96-6.96,6.96,3.12,6.96,6.96m3.89,0c0-5.99-4.86-10.85-10.85-10.85S0,65.72,0,71.71s4.86,10.85,10.85,10.85,10.85-4.86,10.85-10.85h0Z"/>
    </g>
    <g>
      <circle class="cls-1" cx="10.85" cy="40.88" r="10.85"/>
      <path class="cls-1" d="m17.81,10.85c0,3.84-3.12,6.96-6.96,6.96s-6.96-3.12-6.96-6.96,3.12-6.96,6.96-6.96,6.96,3.12,6.96,6.96m3.89,0C21.7,4.86,16.84,0,10.85,0S0,4.86,0,10.85s4.86,10.85,10.85,10.85,10.85-4.86,10.85-10.85h0Z"/>
    </g>
  </g>
</svg>