<?xml version="1.0" encoding="UTF-8"?>
<svg id="Layer_1" data-name="Layer 1" xmlns="http://www.w3.org/2000/svg" viewBox="0 0 73.39 270.55">
  <defs>
    <style>
      .cls-1 {
        fill: #160d3b;
        stroke-width: 0px;
      }
    </style>
  </defs>
  <path class="cls-1" d="m36.69,73.39c20.26,0,36.69-16.43,36.69-36.69S56.96,0,36.69,0,0,16.43,0,36.69s16.43,36.69,36.69,36.69Zm0,25.2C16.43,98.58,0,115.01,0,135.28s16.43,36.69,36.69,36.69,36.69-16.43,36.69-36.69-16.43-36.69-36.69-36.69Zm0,98.58c-20.27,0-36.69,16.43-36.69,36.69s16.43,36.69,36.69,36.69,36.69-16.43,36.69-36.69-16.43-36.69-36.69-36.69Z"/>
</svg>