<?xml version="1.0" encoding="UTF-8"?>
<svg id="Layer_1" data-name="Layer 1" xmlns="http://www.w3.org/2000/svg" viewBox="0 0 343.62 274.8">
  <defs>
    <style>
      .cls-1 {
        fill: #231f20;
        stroke-width: 0px;
      }
    </style>
  </defs>
  <path class="cls-1" d="m270.47,81.49c4.08-1.53,6.83-5.36,5.59-9.85-.3-1.09-.88-2.11-1.64-3,12.32-4.91,24.8-9.45,37.42-13.62,8.58-2.84,17.22-5.48,25.9-7.97,4.19-1.2,6.76-5.61,5.59-9.85-1.15-4.17-5.66-6.8-9.85-5.59-13.01,3.73-25.92,7.84-38.69,12.33-.77-1.58-2.09-2.92-3.66-3.76,6.62-2.8,13.34-5.34,20.18-7.54,4.15-1.34,6.79-5.51,5.59-9.85-.61-2.23-2.27-4.1-4.33-5.11,1.71-.63,3.42-1.25,5.14-1.86,4.11-1.46,6.82-5.41,5.59-9.85-1.09-3.97-5.74-7.06-9.85-5.59-59.69,21.28-116.08,51.62-169.11,86.14C95.13,118.55,48.25,155.96,12.66,203.07c-4.03,5.34-7.87,10.82-11.53,16.42-2.39,3.66-.75,8.84,2.87,10.96,3.91,2.29,8.57.77,10.96-2.87.48-.74.97-1.46,1.46-2.19.13.09.26.18.39.26.28.17.58.31.89.43-1,1.53-1.99,3.07-2.96,4.63-2.3,3.71-.82,8.8,2.87,10.96,1.4.82,2.94,1.15,4.43,1.06.66,1.9,1.96,3.6,3.58,4.55,4.08,2.39,8.35.62,10.96-2.87,7.91-10.62,17.06-21.72,26.51-32.24,3.12-3.47,6.3-6.89,9.52-10.26-.05.07-.1.14-.16.21-7.01,9.72-13.81,19.71-20.47,29.67-7.11,10.65-12.99,22.11-14.31,35-.45,4.35,3.98,8.01,8.01,8.01,4.7,0,7.57-3.67,8.01-8.01.02-.24.04-.42.05-.56.03-.14.06-.34.11-.61.14-.83.33-1.64.52-2.46.38-1.65.9-3.27,1.45-4.87,1.01-2.92,2.47-5.84,4.32-9.21,1.93-3.51,4.08-6.88,6.33-10.2,3.76,1.69,7.86.07,10.15-3.28,16.63-24.4,36.37-46.76,58.61-66.97,22.98-20.87,47.84-38,74.19-54.91,19.36-12.42,39.92-24.31,61.03-32.23Zm-57.84-17.26c-1.97,1.19-3.94,2.38-5.91,3.58-.11-.03-.21-.06-.32-.09,1.57-.89,3.14-1.77,4.71-2.65.51-.28,1.01-.56,1.52-.84Z"/>
</svg>