<?xml version="1.0" encoding="UTF-8"?>
<svg id="Layer_1" data-name="Layer 1" xmlns="http://www.w3.org/2000/svg" viewBox="0 0 27.29 309.98">
  <defs>
    <style>
      .cls-1 {
        fill: #160d3b;
        stroke-width: 0px;
      }
    </style>
  </defs>
  <polygon class="cls-1" points="0 144.83 15.98 124.53 0 104.23 15.98 83.94 0 63.64 15.98 43.34 0 23.04 18.15 0 25.12 5.49 11.3 23.04 27.29 43.34 11.3 63.64 27.29 83.94 11.3 104.23 27.29 124.53 11.3 144.83 27.29 165.12 11.3 185.42 27.29 205.72 11.3 226.02 27.29 246.32 11.3 266.62 27.29 286.93 9.14 309.98 2.16 304.49 15.98 286.93 0 266.62 15.98 246.32 0 226.02 15.98 205.72 0 185.42 15.98 165.12 0 144.83"/>
</svg>