<?xml version="1.0" encoding="UTF-8"?>
<svg id="Layer_1" data-name="Layer 1" xmlns="http://www.w3.org/2000/svg" viewBox="0 0 33.88 276.39">
  <defs>
    <style>
      .cls-1 {
        fill: #160d3b;
        stroke-width: 0px;
      }
    </style>
  </defs>
  <path class="cls-1" d="m27.72,249.91c0,7.03-4.72,10.49-8.51,13.26-2.43,1.78-4.11,3.08-4.88,4.75-.64,1.39-2,2.3-3.53,2.3h0c-2.21,0-3.9-1.82-3.9-3.84,0-.49.1-.99.31-1.47,1.61-3.68,4.76-5.99,7.44-7.96,3.42-2.51,5.36-4.07,5.36-7.05s-1.94-4.55-5.36-7.05c-3.79-2.78-8.51-6.23-8.51-13.26s4.72-10.49,8.51-13.26c3.42-2.51,5.36-4.07,5.36-7.05s-1.94-4.54-5.36-7.05c-3.79-2.78-8.51-6.23-8.51-13.26s4.72-10.49,8.51-13.26c3.42-2.51,5.36-4.07,5.36-7.05s-1.94-4.54-5.36-7.05c-3.79-2.78-8.51-6.23-8.51-13.26s4.72-10.49,8.51-13.26c3.42-2.51,5.36-4.07,5.36-7.05s-1.94-4.54-5.36-7.05c-3.79-2.78-8.51-6.23-8.51-13.26s4.72-10.48,8.51-13.26c3.42-2.51,5.36-4.07,5.36-7.05s-1.94-4.54-5.36-7.05c-3.79-2.78-8.51-6.23-8.51-13.26s4.72-10.49,8.51-13.26c3.42-2.51,5.36-4.07,5.36-7.05s-1.94-4.54-5.36-7.05c-3.79-2.78-8.51-6.23-8.51-13.26s4.72-10.49,8.51-13.26c2.43-1.78,4.11-3.08,4.88-4.75.64-1.39,2-2.3,3.53-2.3h0c2.21,0,3.9,1.82,3.9,3.84,0,.49-.1.99-.31,1.47-1.61,3.68-4.76,5.99-7.44,7.95-3.42,2.51-5.36,4.07-5.36,7.05s1.94,4.54,5.36,7.05c3.79,2.78,8.51,6.23,8.51,13.26s-4.72,10.49-8.51,13.26c-3.42,2.51-5.36,4.07-5.36,7.05s1.94,4.54,5.36,7.05c3.79,2.78,8.51,6.23,8.51,13.26s-4.72,10.48-8.51,13.26c-3.42,2.51-5.36,4.07-5.36,7.05s1.94,4.54,5.36,7.05c3.79,2.78,8.51,6.23,8.51,13.26s-4.72,10.49-8.51,13.26c-3.42,2.51-5.36,4.07-5.36,7.05s1.94,4.54,5.36,7.05c3.79,2.78,8.51,6.23,8.51,13.26s-4.72,10.49-8.51,13.26c-3.42,2.51-5.36,4.07-5.36,7.05s1.94,4.54,5.36,7.05c3.79,2.78,8.51,6.23,8.51,13.26s-4.72,10.49-8.51,13.26c-3.42,2.51-5.36,4.07-5.36,7.05s1.94,4.55,5.36,7.05c3.79,2.78,8.51,6.23,8.51,13.26m6.16,0c0-10.15-6.9-15.21-11.02-18.23-.69-.51-2-1.47-2.64-2.08.64-.62,1.95-1.57,2.64-2.08,4.12-3.02,11.02-8.08,11.02-18.23s-6.9-15.21-11.03-18.23c-.69-.51-2-1.46-2.64-2.08.64-.62,1.95-1.57,2.64-2.08,4.12-3.02,11.02-8.08,11.02-18.23s-6.9-15.21-11.03-18.23c-.69-.51-2-1.46-2.64-2.08.64-.62,1.95-1.57,2.64-2.08,4.12-3.02,11.03-8.08,11.03-18.23s-6.9-15.21-11.03-18.23c-.69-.51-2-1.46-2.64-2.08.64-.62,1.95-1.57,2.64-2.08,4.12-3.02,11.03-8.08,11.03-18.23s-6.9-15.21-11.03-18.23c-.69-.51-2-1.46-2.64-2.08.64-.62,1.95-1.57,2.64-2.08,4.12-3.02,11.03-8.08,11.03-18.23s-6.9-15.21-11.03-18.23c-.69-.51-2-1.46-2.64-2.08.64-.62,1.95-1.57,2.64-2.08,3.03-2.22,7.17-5.25,9.45-10.45.55-1.26.83-2.58.83-3.94,0-5.51-4.51-10-10.06-10-3.88,0-7.44,2.28-9.1,5.82-.38.53-2.11,1.8-2.95,2.42C6.9,11.26,0,16.32,0,26.47s6.9,15.21,11.03,18.23c.69.51,2,1.46,2.64,2.08-.64.62-1.95,1.57-2.64,2.08-4.12,3.02-11.03,8.08-11.03,18.23s6.9,15.21,11.02,18.23c.69.51,2,1.46,2.64,2.08-.64.62-1.95,1.57-2.64,2.08-4.12,3.02-11.03,8.08-11.03,18.23s6.9,15.21,11.03,18.23c.69.51,2,1.46,2.64,2.08-.64.62-1.95,1.57-2.64,2.08-4.12,3.02-11.03,8.08-11.03,18.23s6.9,15.21,11.03,18.23c.69.51,2,1.46,2.64,2.08-.64.62-1.95,1.57-2.64,2.08-4.12,3.02-11.02,8.08-11.02,18.23s6.9,15.21,11.03,18.23c.69.51,2,1.46,2.64,2.08-.64.62-1.95,1.57-2.64,2.08-4.12,3.02-11.02,8.08-11.02,18.23s6.9,15.21,11.02,18.23c.69.51,2,1.47,2.64,2.08-.64.62-1.95,1.57-2.64,2.08-3.03,2.22-7.17,5.26-9.45,10.46-.55,1.26-.83,2.58-.83,3.94,0,5.51,4.51,10,10.06,10,3.88,0,7.45-2.28,9.1-5.83.38-.53,2.11-1.8,2.95-2.42,4.12-3.02,11.02-8.08,11.02-18.23h0Z"/>
</svg>