<?xml version="1.0" encoding="UTF-8"?>
<svg id="Layer_1" data-name="Layer 1" xmlns="http://www.w3.org/2000/svg" viewBox="0 0 33.82 322.14">
  <defs>
    <style>
      .cls-1 {
        fill: #160d3b;
        stroke-width: 0px;
      }
    </style>
  </defs>
  <path class="cls-1" d="m0,295.29c0-9.49,8.12-13.96,14.65-17.54,6.08-3.34,9.78-5.64,9.78-9.31s-3.69-5.96-9.78-9.31c-6.53-3.59-14.65-8.05-14.65-17.54s8.12-13.95,14.65-17.54c6.08-3.34,9.78-5.64,9.78-9.31s-3.69-5.96-9.78-9.31c-6.53-3.59-14.65-8.05-14.65-17.54s8.12-13.95,14.65-17.54c6.08-3.34,9.78-5.64,9.78-9.31s-3.69-5.96-9.78-9.3c-6.53-3.59-14.65-8.05-14.65-17.54s8.12-13.95,14.65-17.54c6.08-3.34,9.78-5.64,9.78-9.3s-3.69-5.96-9.78-9.3c-6.53-3.59-14.65-8.05-14.65-17.54s8.12-13.95,14.65-17.54c6.08-3.34,9.78-5.64,9.78-9.31s-3.69-5.96-9.78-9.31C8.12,40.8,0,36.33,0,26.84S8.12,12.89,14.65,9.3c6.08-3.34,9.78-5.64,9.78-9.3h9.39c0,9.49-8.12,13.95-14.65,17.54-6.08,3.34-9.78,5.64-9.78,9.3s3.69,5.96,9.78,9.31c6.53,3.59,14.65,8.05,14.65,17.54s-8.12,13.95-14.65,17.54c-6.08,3.34-9.78,5.64-9.78,9.31s3.69,5.96,9.78,9.3c6.53,3.59,14.65,8.05,14.65,17.54s-8.12,13.95-14.65,17.54c-6.08,3.34-9.78,5.64-9.78,9.3s3.69,5.96,9.78,9.3c6.53,3.59,14.65,8.05,14.65,17.54s-8.12,13.95-14.65,17.54c-6.08,3.34-9.78,5.64-9.78,9.31s3.69,5.96,9.78,9.31c6.53,3.59,14.65,8.05,14.65,17.54,0,9.49-8.12,13.95-14.65,17.54-6.08,3.34-9.78,5.64-9.78,9.31s3.69,5.96,9.78,9.31c6.53,3.59,14.65,8.05,14.65,17.54s-8.12,13.95-14.65,17.54c-6.08,3.34-9.78,5.64-9.78,9.31s3.69,5.96,9.78,9.31c6.53,3.59,14.65,8.05,14.65,17.54h-9.39c0-3.67-3.69-5.96-9.78-9.31-6.53-3.59-14.65-8.05-14.65-17.54Z"/>
</svg>