<?xml version="1.0" encoding="UTF-8"?>
<svg id="Layer_1" data-name="Layer 1" xmlns="http://www.w3.org/2000/svg" viewBox="0 0 294.32 324.25">
  <defs>
    <style>
      .cls-1 {
        fill: #231f20;
        stroke-width: 0px;
      }
    </style>
  </defs>
  <path class="cls-1" d="m4.48,187.9c9.38.74,18.81.06,28.2.58,8.44.47,17.6,2.01,23.92,8.1,8.02,7.74,8.38,19.76,5.31,29.76-3.68,11.98-11.66,22.66-19.79,31.99-3.72,4.28,2.1,10.26,6.27,6.27,9.23-8.86,20.72-17.87,33.93-19.23,9.73-1,18.49,2.99,25.4,9.69,7.97,7.72,13.15,18.12,16.77,28.47,4.1,11.7,6.28,24.06,6.74,36.43.21,5.73,8.57,5.7,8.86,0,1.22-24.2,8.53-49.66,27.41-66.04,16.71-14.49,39.48-15.84,59.78-9.06,10.23,3.42,19.7,8.89,28.46,15.11,3.92,2.78,7.87-2.44,6.06-6.06-8-16.05-14.7-34.31-14.98-52.27-.12-7.87,1.15-15.11,5.7-21.5,1.78-2.5,4.83-4.92,8.01-6.62,3.68-1.96,8.31-3.09,12.7-3.57,5.53-.61,11.13-.35,16.65.22,2.41.25,4.43-2.21,4.43-4.43v-1.77c0-1.97-1.35-3.75-3.25-4.27-16.88-4.64-33.13-15.06-37.46-33.02-4.23-17.56,5.89-34.71,18.14-46.43,3.82-3.66-1.01-9.06-5.37-6.96-10.75,5.18-22.69,9.63-34.82,8.8-7.69-.53-14.45-4.44-18.67-10.57-5.14-7.47-6.95-16.85-7.56-25.92-.21-3.1-.27-6.2-.2-9.31,4.2-9.88,5.51-21.01,4.1-31.86-.26-1.99-1.17-3.7-3.25-4.27-2.23-.61-4.94.73-5.45,3.1-2.14,9.85-3.94,20.48-4.37,31.08-3.38,7.16-8.58,13.42-15.7,18.13-14.61,9.67-33.26,11.07-49.48,4.61-12.82-5.1-22.95-16.28-28.27-29.01-.93-2.23-2.9-3.8-5.45-3.1-2.32.64-3.75,3.13-3.1,5.45,3.08,10.92,5.7,22.87,3.79,34.25-1.28,7.64-4.93,14.14-10.79,18.19-6.41,4.43-14.44,6.16-22.26,6.85-10.07.88-20.27.11-30.28-1.07-2.4-.29-4.43,2.23-4.43,4.43,0,2.62,2.01,4.13,4.4,4.43-.81.95-1.18,2.26-.69,3.84,4.63,15.1,10.62,33.19,5.18,48.38-2.04,5.69-6.62,10.83-11.65,15.02-7.47,6.22-16.47,10.72-25.17,14.91-4.31,2.08-1.76,7.94,2.24,8.26Zm42.96-35.38c2.81-7.16,2.95-15.2,2.12-22.75-1.16-10.5-4.04-20.73-7.13-30.8-.08-.25-.17-.48-.28-.7,8.15.71,16.35.95,24.49.13,9.02-.91,18.28-3.1,25.77-8.44,13.02-9.29,15.84-24.34,14.62-39.32,8.27,8.93,18.96,15.35,31.5,17.95,18.39,3.81,37.94-.9,52.36-12.95,2.11-1.76,4.03-3.67,5.77-5.69.85,7.35,2.66,14.51,5.8,21.18,3.83,8.13,10.36,14.35,18.7,17.64,9.79,3.87,21.15,2.34,30.98-.45.58-.17,1.17-.35,1.75-.53-7.97,12.14-12.15,26.47-8.83,41.23,3.29,14.62,13.74,25.32,26.39,32.27-5.16.67-10.2,2.01-14.94,4.34-7.77,3.82-13.18,10.74-16.06,18.78-6.16,17.17-.78,37.69,5.17,54.14.73,2.02,1.5,4.02,2.3,6.01-17.92-9.96-38.39-15.49-58.86-11.06-22.23,4.81-39.1,22.01-48.07,42.3-2.06,4.66-3.74,9.46-5.11,14.34-3.64-14.19-9.81-27.73-19.31-38.61-7.04-8.06-16.31-13.51-26.95-14.93-8.6-1.14-17.19,1.23-24.95,5.11,8.66-15.95,12.33-33.99-.07-49.49-6.83-8.54-18.13-11.32-28.49-12.35-4.76-.47-9.53-.51-14.31-.5,10.97-6.52,20.92-14.8,25.64-26.85Z"/>
</svg>