<?xml version="1.0" encoding="UTF-8"?>
<svg id="Layer_1" data-name="Layer 1" xmlns="http://www.w3.org/2000/svg" viewBox="0 0 292.41 268.51">
  <defs>
    <style>
      .cls-1 {
        fill: #231f20;
        stroke-width: 0px;
      }
    </style>
  </defs>
  <path class="cls-1" d="m286.51,162.8c5.56-9.29,6.62-20.66,5.51-31.22-1.26-11.96-4.67-23.49-8.57-34.82-3.99-11.58-8.76-22.91-13.76-34.09-9.07-20.31-20.62-41.18-39.88-53.46C220.05,2.99,208.5.07,197,0c-14.77-.09-29.12,4.78-42.64,10.29-30.1,12.29-57.15,30.65-86.86,43.7-10.94,4.8-22.1,9.14-32.83,14.43-9.23,4.56-18.66,10.14-25.35,18.11C2.36,94.81-1.07,105.16.29,115.98c1.65,13.09,8.21,24.2,14.37,35.61,11.77,21.79,23.62,43.93,40.26,62.48,7.68,8.56,16.88,16.48,27.53,21.05,10.41,4.47,21.27,4.95,32.42,3.62,12.73-1.52,25.15-4.7,37.22-8.98,11.31-4.01,22.54-8.89,32.71-15.31,1.57-.99,3.11-2.05,4.61-3.15,6.42,8.96,14.1,17.08,21.72,24.96,9.86,10.17,20.15,19.91,30.17,29.92,3.14,3.13,8.37,3.14,11.5,0,.24-.24.45-.49.66-.76,2.67-.76,4.96-2.81,5.66-5.63,3.33-13.39,5.61-27.08,7-40.81.7-6.88,1.08-13.81.83-20.73-.21-5.64-.76-11.6-2.7-16.96,9.03-3.94,17.06-9.79,22.26-18.47Zm-10.44-20.83c-.04.68-.1,1.35-.17,2.02.02-.36-.27,1.69-.35,2.12-.36,1.84-.9,3.64-1.54,5.39-.07.18-.12.33-.16.44-.06.1-.17.31-.34.68-.49,1.01-1.05,1.97-1.64,2.92-.18.29-1.04,1.46-1.2,1.72-.46.55-.94,1.08-1.43,1.61-.69.73-1.43,1.41-2.18,2.08-.15.13-.76.63-.93.78-.31.22-.62.44-.93.66-1.89,1.32-3.92,2.42-5.98,3.44-.44.21-.89.42-1.34.62-.1.04-.18.08-.26.12-.13.05-.33.13-.63.24-1.52.6-3.06,1.11-4.62,1.6-4.23,1.33-6.89,5.62-5.68,10.01.28,1.01.77,1.94,1.4,2.76-.28,1.23-.25,2.52.23,3.75.84,2.15,1.38,4.38,1.79,6.65.03.19.11.7.16,1,.06.57.12,1.13.17,1.7.14,1.54.22,3.09.28,4.64.24,6.69-.2,13.4-.85,20.05-.15,1.56-.33,3.11-.51,4.67-.09.78-.19,1.55-.29,2.33-.01.09-.02.17-.03.25-.07.48-.14.97-.21,1.45-.5,3.51-1.08,7.01-1.71,10.5-.55,3.04-1.14,6.07-1.79,9.09-7.18-7.05-14.41-14.06-21.45-21.25-4.76-4.87-9.43-9.83-13.9-14.97-1.04-1.19-2.05-2.4-3.06-3.62-.49-.59-.97-1.18-1.44-1.78-.06-.08-.7-.89-.88-1.12-1.67-2.19-3.26-4.45-4.74-6.79-2.19-3.46-6.5-4.98-10.24-3.36-2.58-.52-5.33.34-7.54,2.16-.19.16-.39.32-.59.48-.22.17-.51.39-.64.49-.9.67-1.83,1.3-2.77,1.93-2.21,1.48-4.51,2.84-6.83,4.14-2.35,1.32-4.75,2.54-7.17,3.72-1.27.62-2.55,1.21-3.84,1.8-.66.3-1.31.59-1.97.88-.42.18-.84.36-1.26.54-.05.02-.1.04-.16.07-11.51,4.79-23.54,8.51-35.78,10.87-1.4.27-2.81.51-4.22.73-.43.07-.86.13-1.28.19-.18.02-1.16.16-1.35.18-2.81.34-5.64.54-8.47.62-2.38.07-4.76,0-7.13-.2-.27-.02-.55-.06-.82-.09-.27-.04-.63-.08-.81-.11-1.21-.2-2.41-.48-3.59-.83-1.19-.35-2.35-.77-3.51-1.21-.05-.02-.1-.04-.14-.05-.06-.03-.13-.06-.22-.1-.57-.26-1.14-.53-1.7-.81-2.5-1.22-4.88-2.68-7.19-4.25-.54-.37-1.08-.76-1.61-1.14-.12-.08-.64-.49-.92-.69-.91-.73-1.81-1.47-2.69-2.23-2.29-1.97-4.45-4.09-6.55-6.26-2-2.08-3.91-4.25-5.76-6.46-.95-1.13-1.87-2.28-2.78-3.43-.12-.15-.2-.25-.27-.34-.07-.09-.16-.21-.27-.36-.6-.79-1.2-1.59-1.79-2.39-3.74-5.07-7.21-10.34-10.54-15.69-6.36-10.22-12.09-20.81-17.8-31.4-2.73-5.06-5.62-10.04-8.21-15.17-.38-.76-.74-1.53-1.1-2.3-.01-.02-.51-1.18-.64-1.45-.51-1.27-.98-2.56-1.42-3.86-.45-1.33-.82-2.69-1.16-4.05-.16-.64-.29-1.3-.43-1.95-.05-.25-.21-1.29-.27-1.7-.21-2.07-.22-4.16-.05-6.23,0-.04,0-.08,0-.12.08-.48.18-.97.29-1.45.26-1.19.63-2.35,1.04-3.5.02-.06.03-.09.05-.14.19-.41.39-.81.59-1.21.47-.92,1.01-1.8,1.57-2.66.26-.41.54-.8.83-1.19.03-.04.05-.06.09-.11.79-.97,1.65-1.88,2.54-2.78.78-.79,1.6-1.53,2.43-2.26.43-.37.86-.73,1.3-1.09.08-.07.15-.12.21-.17,2.07-1.57,4.26-2.98,6.48-4.33,4.7-2.85,9.65-5.27,14.63-7.58,11.54-5.33,23.44-9.82,34.89-15.34,28.51-13.75,55.76-31.78,85.09-42.23,3.54-1.26,7.12-2.39,10.74-3.41,1.69-.48,3.39-.9,5.12-1.27.78-.17,1.57-.31,2.36-.45.23-.04,2.04-.32,2.2-.36,2.72-.34,5.45-.49,8.19-.51,1.37,0,2.74.05,4.11.14.67.04,1.33.11,1.99.17.21.02.41.05.62.07.11.02.25.04.45.07,2.49.39,4.94,1,7.34,1.75,1.17.36,2.31.79,3.45,1.23.08.04.17.08.29.13.73.33,1.45.68,2.17,1.05,2.14,1.08,4.19,2.34,6.17,3.69.5.34.98.69,1.46,1.05.07.05.12.09.17.13.03.02.05.04.09.07,1.11.88,2.17,1.81,3.22,2.76,1.82,1.65,3.53,3.43,5.18,5.26.84.93,1.64,1.89,2.44,2.86.24.29.48.6.72.89-.02-.01.96,1.26,1.12,1.48,3.26,4.42,6.13,9.11,8.8,13.9,2.79,5,5.3,10.15,7.69,15.36,1.17,2.54,2.29,5.1,3.4,7.67.28.64.55,1.29.83,1.94.04.1.25.59.4.95.59,1.41,1.18,2.82,1.76,4.23,3.74,9.04,7.12,18.18,10.01,27.53,1.36,4.42,2.57,8.89,3.55,13.41.47,2.15.86,4.32,1.19,6.5.07.55.13,1.1.19,1.65.13,1.24.21,2.49.28,3.73.1,2.01.09,4.02-.02,6.03Z"/>
</svg>