<?xml version="1.0" encoding="UTF-8"?>
<svg id="Layer_1" data-name="Layer 1" xmlns="http://www.w3.org/2000/svg" viewBox="0 0 321.1 29.58">
  <defs>
    <style>
      .cls-1 {
        stroke-width: 0px;
      }
    </style>
  </defs>
  <polygon class="cls-1" points="0 19.51 11.26 0 22.52 19.51 0 19.51"/>
  <polygon class="cls-1" points="49.67 19.51 60.94 0 72.2 19.51 49.67 19.51"/>
  <polygon class="cls-1" points="99.35 19.51 110.61 0 121.87 19.51 99.35 19.51"/>
  <polygon class="cls-1" points="149.03 19.51 160.29 0 171.55 19.51 149.03 19.51"/>
  <polygon class="cls-1" points="198.7 19.51 209.96 0 221.22 19.51 198.7 19.51"/>
  <polygon class="cls-1" points="248.38 19.51 259.64 0 270.9 19.51 248.38 19.51"/>
  <polygon class="cls-1" points="298.05 19.51 309.31 0 320.58 19.51 298.05 19.51"/>
  <polygon class="cls-1" points="24.84 0 36.1 19.51 47.36 0 24.84 0"/>
  <polygon class="cls-1" points="74.51 0 85.77 19.51 97.04 0 74.51 0"/>
  <polygon class="cls-1" points="124.19 0 135.45 19.51 146.71 0 124.19 0"/>
  <polygon class="cls-1" points="173.86 0 185.13 19.51 196.39 0 173.86 0"/>
  <polygon class="cls-1" points="223.54 0 234.8 19.51 246.06 0 223.54 0"/>
  <polygon class="cls-1" points="273.22 0 284.48 19.51 295.74 0 273.22 0"/>
  <rect class="cls-1" y="25.62" width="321.1" height="3.96"/>
</svg>