<svg xmlns="http://www.w3.org/2000/svg" viewBox="0 0 161 172" preserveAspectRatio="xMidYMid meet">
  <path d="M 129 22 L 128 22 L 125 19 L 124 19 L 118 14 L 108 9 L 106 9 L 103 7 L 100 7 L 96 5 L 91 5 L 90 4 L 85 4 L 84 3 L 59 3 L 58 4 L 30 4 L 29 5 L 4 5 L 5 6 L 10 6 L 12 7 L 16 11 L 16 13 L 17 14 L 17 155 L 16 156 L 16 159 L 15 161 L 12 164 L 10 165 L 7 165 L 6 166 L 3 166 L 3 167 L 61 167 L 62 168 L 86 168 L 87 167 L 96 166 L 97 165 L 102 164 L 105 162 L 107 162 L 115 158 L 117 156 L 118 156 L 120 154 L 124 152 L 139 137 L 139 136 L 144 130 L 146 125 L 148 123 L 150 119 L 150 117 L 152 114 L 152 112 L 153 111 L 153 108 L 154 107 L 154 105 L 155 104 L 155 100 L 156 99 L 156 90 L 157 89 L 157 80 L 156 79 L 156 71 L 155 70 L 155 65 L 154 64 L 154 62 L 153 61 L 153 59 L 152 58 L 151 53 L 148 48 L 148 46 L 146 44 L 145 41 L 143 39 L 141 35 L 138 32 L 138 31 Z M 71 6 L 73 6 L 74 7 L 83 7 L 84 8 L 89 9 L 93 12 L 94 12 L 100 18 L 100 19 L 102 21 L 105 27 L 105 29 L 107 32 L 107 34 L 108 35 L 108 38 L 109 39 L 109 42 L 110 43 L 110 46 L 111 47 L 111 52 L 112 53 L 112 60 L 113 61 L 113 78 L 114 79 L 114 92 L 113 93 L 113 108 L 112 109 L 112 115 L 111 116 L 111 121 L 110 122 L 110 127 L 109 128 L 109 131 L 107 135 L 107 138 L 106 139 L 106 141 L 101 151 L 99 153 L 99 154 L 92 161 L 86 164 L 84 164 L 83 165 L 80 165 L 79 166 L 74 166 L 73 167 L 68 167 L 62 164 L 60 164 L 57 162 L 57 9 L 58 8 L 62 8 L 63 7 L 70 7 Z" fill="currentColor" fill-rule="evenodd"/>
</svg>
