<svg xmlns="http://www.w3.org/2000/svg" viewBox="0 0 202 208" preserveAspectRatio="xMidYMid meet">
  <path d="M 185 13 L 185 14 L 188 14 L 189 15 L 192 15 L 194 16 L 197 21 L 197 98 L 195 102 L 195 103 L 197 105 L 197 184 L 196 185 L 196 188 L 193 191 L 191 192 L 185 192 L 185 193 L 201 193 L 201 13 L 200 14 L 191 14 L 190 13 Z M 0 13 L 0 193 L 15 193 L 15 192 L 11 192 L 10 191 L 8 191 L 4 187 L 4 185 L 3 184 L 3 105 L 5 103 L 3 99 L 3 23 L 6 17 L 12 14 L 16 14 L 15 13 Z M 93 10 L 92 11 L 88 11 L 87 12 L 84 12 L 83 13 L 80 13 L 79 14 L 77 14 L 76 15 L 71 16 L 59 22 L 57 24 L 54 25 L 47 31 L 46 31 L 38 39 L 37 39 L 36 41 L 30 47 L 30 48 L 27 51 L 27 52 L 23 57 L 22 60 L 20 62 L 18 66 L 18 68 L 16 71 L 16 73 L 15 74 L 14 79 L 13 80 L 13 84 L 12 85 L 12 88 L 11 89 L 11 96 L 10 97 L 10 113 L 11 114 L 11 121 L 12 122 L 12 126 L 13 127 L 14 134 L 15 135 L 16 140 L 19 145 L 19 147 L 21 151 L 23 153 L 25 158 L 30 164 L 30 165 L 43 178 L 44 178 L 47 181 L 53 184 L 55 186 L 59 188 L 61 188 L 64 190 L 69 191 L 70 192 L 73 192 L 74 193 L 77 193 L 78 194 L 83 194 L 84 195 L 107 195 L 108 194 L 112 194 L 113 193 L 116 193 L 117 192 L 119 192 L 120 191 L 122 191 L 123 190 L 128 189 L 134 186 L 136 184 L 139 183 L 141 181 L 144 180 L 148 176 L 149 176 L 157 169 L 158 169 L 169 157 L 169 156 L 172 153 L 175 147 L 177 145 L 181 137 L 181 135 L 183 132 L 183 130 L 184 129 L 184 126 L 186 122 L 186 119 L 187 118 L 187 114 L 188 113 L 188 105 L 189 104 L 189 94 L 188 93 L 188 84 L 187 83 L 187 78 L 186 77 L 185 70 L 182 64 L 182 62 L 175 48 L 173 46 L 173 45 L 170 42 L 170 41 L 156 27 L 155 27 L 152 24 L 149 23 L 147 21 L 137 16 L 135 16 L 132 14 L 129 14 L 125 12 L 122 12 L 121 11 L 116 11 L 115 10 Z M 109 132 L 110 131 L 111 132 L 110 133 Z M 119 121 L 120 120 L 121 122 L 120 123 Z M 118 119 L 119 118 L 120 120 L 119 121 Z M 117 118 L 118 117 L 119 118 L 118 119 Z M 93 115 L 94 114 L 95 116 L 94 117 Z M 83 113 L 84 112 L 85 113 L 84 114 Z M 119 108 L 120 107 L 121 108 L 120 109 Z M 118 107 L 119 106 L 120 107 L 119 108 Z M 117 106 L 118 105 L 119 106 L 118 107 Z M 115 105 L 116 104 L 117 105 L 116 106 Z M 82 99 L 83 98 L 85 99 L 84 100 Z M 84 98 L 85 97 L 86 98 L 85 99 Z M 83 87 L 84 86 L 86 87 L 85 88 Z M 83 84 L 84 83 L 85 84 L 84 85 Z M 112 83 L 113 82 L 115 83 L 114 84 Z M 69 72 L 70 71 L 71 72 L 70 73 Z M 49 34 L 57 30 L 59 30 L 60 29 L 63 29 L 64 28 L 69 28 L 70 27 L 79 27 L 80 28 L 85 28 L 86 29 L 89 29 L 90 30 L 93 30 L 94 31 L 96 31 L 108 37 L 114 42 L 118 44 L 124 50 L 125 50 L 128 54 L 129 54 L 131 56 L 131 57 L 138 64 L 140 68 L 143 71 L 146 77 L 148 79 L 154 91 L 154 93 L 156 96 L 156 98 L 157 99 L 157 101 L 158 102 L 158 104 L 160 108 L 160 111 L 161 112 L 161 117 L 162 118 L 162 127 L 163 128 L 163 134 L 162 135 L 162 141 L 161 142 L 161 146 L 160 147 L 160 149 L 159 150 L 158 155 L 154 163 L 152 165 L 152 166 L 144 175 L 140 177 L 135 178 L 134 179 L 131 179 L 130 180 L 116 180 L 115 179 L 112 179 L 111 178 L 108 178 L 105 176 L 103 176 L 99 173 L 99 164 L 100 163 L 100 153 L 101 152 L 101 144 L 102 143 L 102 132 L 104 131 L 104 126 L 103 125 L 105 123 L 104 122 L 104 120 L 106 117 L 107 118 L 107 120 L 109 122 L 108 123 L 109 124 L 108 125 L 108 127 L 109 128 L 109 132 L 110 133 L 109 135 L 112 139 L 111 140 L 113 141 L 113 143 L 114 143 L 118 139 L 119 137 L 119 132 L 120 131 L 120 124 L 121 123 L 122 123 L 123 125 L 126 128 L 126 130 L 127 129 L 128 130 L 128 133 L 130 135 L 130 136 L 133 138 L 133 141 L 135 139 L 135 133 L 134 132 L 133 127 L 128 117 L 120 109 L 121 108 L 124 109 L 129 113 L 131 113 L 132 115 L 134 115 L 136 117 L 136 118 L 137 118 L 138 120 L 142 123 L 143 121 L 143 115 L 142 114 L 142 112 L 140 108 L 134 102 L 131 101 L 129 99 L 127 98 L 125 98 L 124 97 L 122 97 L 121 96 L 118 96 L 117 95 L 118 94 L 122 94 L 123 93 L 124 94 L 127 94 L 130 92 L 131 93 L 137 93 L 138 94 L 139 93 L 140 94 L 142 94 L 143 96 L 144 96 L 144 91 L 142 87 L 139 84 L 135 82 L 132 82 L 131 81 L 123 81 L 122 82 L 118 82 L 117 83 L 115 83 L 114 82 L 116 81 L 114 79 L 115 78 L 118 78 L 118 77 L 116 76 L 117 75 L 120 75 L 119 74 L 120 73 L 122 73 L 121 72 L 122 71 L 124 71 L 125 70 L 124 69 L 125 68 L 129 68 L 129 66 L 127 64 L 124 63 L 123 62 L 125 61 L 122 59 L 115 59 L 111 62 L 110 61 L 106 64 L 105 64 L 103 66 L 102 66 L 100 68 L 98 72 L 98 74 L 96 76 L 97 77 L 95 80 L 93 76 L 90 73 L 90 71 L 82 63 L 76 60 L 73 60 L 72 59 L 67 59 L 66 60 L 63 60 L 63 61 L 65 63 L 61 66 L 62 68 L 67 70 L 68 72 L 70 73 L 72 73 L 73 74 L 73 76 L 74 78 L 78 80 L 81 83 L 81 84 L 83 84 L 84 86 L 83 87 L 80 87 L 79 86 L 65 86 L 62 88 L 60 88 L 52 94 L 52 95 L 49 98 L 49 99 L 46 103 L 46 104 L 47 104 L 50 101 L 52 102 L 54 102 L 55 103 L 55 102 L 56 101 L 58 101 L 59 99 L 61 103 L 61 102 L 63 100 L 64 100 L 65 98 L 66 99 L 68 98 L 69 100 L 70 100 L 72 98 L 73 100 L 74 99 L 76 100 L 78 99 L 79 100 L 80 99 L 82 99 L 83 100 L 79 103 L 78 103 L 76 105 L 75 105 L 70 110 L 69 113 L 66 116 L 66 118 L 65 119 L 65 121 L 63 125 L 63 135 L 64 135 L 64 134 L 66 132 L 67 132 L 70 128 L 71 128 L 71 125 L 72 124 L 73 125 L 74 125 L 75 123 L 76 124 L 76 120 L 77 119 L 78 120 L 80 119 L 80 117 L 83 113 L 84 115 L 80 123 L 80 127 L 79 128 L 79 134 L 78 135 L 78 139 L 79 141 L 80 141 L 80 139 L 81 138 L 83 139 L 87 136 L 88 136 L 89 134 L 89 129 L 91 125 L 90 123 L 91 122 L 92 123 L 92 119 L 93 118 L 94 119 L 94 125 L 97 127 L 95 128 L 95 131 L 97 130 L 98 131 L 98 136 L 97 137 L 97 146 L 96 147 L 96 153 L 95 154 L 95 159 L 94 160 L 94 165 L 93 166 L 93 169 L 92 170 L 88 168 L 82 163 L 81 163 L 73 155 L 72 155 L 66 149 L 66 148 L 61 143 L 61 142 L 55 135 L 55 134 L 51 129 L 49 124 L 47 122 L 42 112 L 42 110 L 40 107 L 40 104 L 38 101 L 38 99 L 36 95 L 36 91 L 35 90 L 35 85 L 34 84 L 34 65 L 35 64 L 35 60 L 36 59 L 36 56 L 37 55 L 38 50 L 42 42 Z" fill="currentColor" fill-rule="evenodd"/>
</svg>
