<svg xmlns="http://www.w3.org/2000/svg" width="1080" height="1080" viewBox="0 0 1080 1080">
  <g fill="none" stroke="#020405" stroke-linecap="round" opacity=".92">
    <path d="M118 1080 C96 910 76 780 18 610" stroke-width="26"/>
    <path d="M962 1080 C984 888 1016 756 1080 548" stroke-width="24"/>
    <g stroke-width="16">
      <path d="M58 676 C-44 650 -104 608 -160 530"/><path d="M64 690 C-38 708 -110 696 -184 654"/>
      <path d="M74 718 C-8 760 -70 796 -142 872"/><path d="M88 746 C24 842 -8 910 -30 1012"/>
      <path d="M1018 646 C1138 610 1200 554 1256 458"/><path d="M1012 666 C1128 690 1212 674 1300 618"/>
      <path d="M1000 700 C1080 756 1140 810 1192 918"/><path d="M984 728 C1028 842 1044 944 1040 1074"/>
    </g>
  </g>
  <path d="M0 986 C160 934 302 954 430 1002 C600 1064 770 982 1080 1008 L1080 1080 L0 1080 Z" fill="#010203" opacity=".8"/>
</svg>
