<svg xmlns="http://www.w3.org/2000/svg" width="1080" height="1080" viewBox="0 0 1080 1080">
  <defs>
    <linearGradient id="drinkA" x1="0" y1="0" x2="1" y2="1">
      <stop offset="0%" stop-color="#00e5ff"/>
      <stop offset="100%" stop-color="#ff2fb3"/>
    </linearGradient>
    <linearGradient id="drinkB" x1="0" y1="0" x2="1" y2="1">
      <stop offset="0%" stop-color="#f6c76a"/>
      <stop offset="100%" stop-color="#ff3d5a"/>
    </linearGradient>
    <filter id="glow" x="-30%" y="-40%" width="160%" height="180%">
      <feGaussianBlur stdDeviation="8" result="b"/>
      <feMerge>
        <feMergeNode in="b"/>
        <feMergeNode in="SourceGraphic"/>
      </feMerge>
    </filter>
  </defs>
  <g filter="url(#glow)" stroke-linecap="round" stroke-linejoin="round">
    <path d="M204 370h230L324 528 204 370Z" fill="url(#drinkA)" fill-opacity=".76" stroke="#aafaff" stroke-width="8"/>
    <path d="M324 528v216M260 744h128" stroke="#ffffff" stroke-width="10" opacity=".78"/>
    <path d="M646 350h184l-28 380H674L646 350Z" fill="url(#drinkB)" fill-opacity=".72" stroke="#ffe08a" stroke-width="8"/>
    <path d="M676 434h126M692 738h92" stroke="#ffffff" stroke-width="8" opacity=".6"/>
    <path d="M486 438c72 0 130 58 130 130s-58 130-130 130-130-58-130-130 58-130 130-130Z" fill="#0a101f" fill-opacity=".75" stroke="#39ff14" stroke-width="8"/>
    <path d="M428 558h116M486 492v154M438 630l96-130" stroke="#ffffff" stroke-width="7" opacity=".68"/>
    <path d="M792 332l70-94" stroke="#ffffff" stroke-width="7" opacity=".7"/>
    <path d="M864 238c34 22 42 58 22 88-34-18-44-56-22-88Z" fill="#19d27c" opacity=".9"/>
  </g>
</svg>
