<svg xmlns="http://www.w3.org/2000/svg" width="1080" height="1080" viewBox="0 0 1080 1080">
  <defs>
    <radialGradient id="ballGlow" cx="50%" cy="45%" r="55%">
      <stop offset="0%" stop-color="#ffffff" stop-opacity="1"/>
      <stop offset="38%" stop-color="#d9fbff" stop-opacity=".88"/>
      <stop offset="72%" stop-color="#7f5cff" stop-opacity=".45"/>
      <stop offset="100%" stop-color="#101226" stop-opacity=".05"/>
    </radialGradient>
    <linearGradient id="mirrorStroke" x1="0" y1="0" x2="1" y2="1">
      <stop offset="0%" stop-color="#ffffff"/>
      <stop offset="45%" stop-color="#8af7ff"/>
      <stop offset="100%" stop-color="#ff6ad5"/>
    </linearGradient>
    <filter id="softGlow" x="-40%" y="-40%" width="180%" height="180%">
      <feGaussianBlur stdDeviation="18" result="b"/>
      <feMerge>
        <feMergeNode in="b"/>
        <feMergeNode in="SourceGraphic"/>
      </feMerge>
    </filter>
  </defs>
  <g filter="url(#softGlow)">
    <circle cx="540" cy="500" r="254" fill="url(#ballGlow)" opacity=".92"/>
    <circle cx="540" cy="500" r="254" fill="none" stroke="url(#mirrorStroke)" stroke-width="10" opacity=".82"/>
  </g>
  <g fill="none" stroke="#ffffff" stroke-opacity=".42" stroke-width="5">
    <path d="M304 500h472"/>
    <path d="M332 382c136 34 280 34 416 0"/>
    <path d="M332 618c136-34 280-34 416 0"/>
    <path d="M540 246v508"/>
    <path d="M420 280c-64 146-64 294 0 440"/>
    <path d="M660 280c64 146 64 294 0 440"/>
    <path d="M360 324c108 96 252 96 360 0"/>
    <path d="M360 676c108-96 252-96 360 0"/>
  </g>
  <g fill="#ffffff">
    <rect x="436" y="328" width="54" height="45" rx="9" opacity=".86"/>
    <rect x="524" y="306" width="62" height="50" rx="10" opacity=".96"/>
    <rect x="612" y="344" width="50" height="42" rx="8" opacity=".72"/>
    <rect x="374" y="462" width="64" height="54" rx="10" opacity=".7"/>
    <rect x="486" y="456" width="80" height="62" rx="12" opacity=".92"/>
    <rect x="606" y="466" width="76" height="58" rx="12" opacity=".82"/>
    <rect x="430" y="592" width="60" height="48" rx="9" opacity=".72"/>
    <rect x="538" y="606" width="70" height="54" rx="10" opacity=".86"/>
  </g>
  <g fill="none" stroke-linecap="round" stroke-width="6" opacity=".75">
    <path d="M290 160 444 310" stroke="#00e5ff"/>
    <path d="M794 154 644 310" stroke="#ff2fb3"/>
    <path d="M172 500h130" stroke="#ffffff"/>
    <path d="M778 500h130" stroke="#ffffff"/>
    <path d="M248 824 408 690" stroke="#f6c76a"/>
    <path d="M838 820 676 690" stroke="#39ff14"/>
  </g>
</svg>
