<svg xmlns="http://www.w3.org/2000/svg" width="1080" height="1080" viewBox="0 0 1080 1080">
  <defs>
    <linearGradient id="deck" x1="0" y1="0" x2="1" y2="1">
      <stop offset="0%" stop-color="#111827"/>
      <stop offset="52%" stop-color="#03050a"/>
      <stop offset="100%" stop-color="#0f172a"/>
    </linearGradient>
    <linearGradient id="neon" x1="0" y1="0" x2="1" y2="0">
      <stop offset="0%" stop-color="#00e5ff"/>
      <stop offset="52%" stop-color="#ff2fb3"/>
      <stop offset="100%" stop-color="#f6c76a"/>
    </linearGradient>
    <filter id="glow" x="-30%" y="-60%" width="160%" height="220%">
      <feGaussianBlur stdDeviation="10" result="b"/>
      <feMerge>
        <feMergeNode in="b"/>
        <feMergeNode in="SourceGraphic"/>
      </feMerge>
    </filter>
  </defs>
  <g filter="url(#glow)">
    <path d="M178 582h724l-64 260H242l-64-260Z" fill="url(#deck)" stroke="url(#neon)" stroke-width="8"/>
    <path d="M234 626h612l-28 108H262l-28-108Z" fill="#050814" stroke="#2dd4ff" stroke-opacity=".5" stroke-width="5"/>
    <path d="M294 774h492" stroke="url(#neon)" stroke-width="10" stroke-linecap="round"/>
  </g>
  <g fill="none" stroke="#ffffff" stroke-opacity=".66" stroke-width="5">
    <circle cx="364" cy="680" r="62"/>
    <circle cx="716" cy="680" r="62"/>
    <circle cx="364" cy="680" r="20"/>
    <circle cx="716" cy="680" r="20"/>
    <path d="M468 646h144"/>
    <path d="M468 682h144"/>
    <path d="M468 718h144"/>
  </g>
  <g fill="#ffffff">
    <circle cx="476" cy="776" r="8" opacity=".88"/>
    <circle cx="520" cy="776" r="8" opacity=".68"/>
    <circle cx="564" cy="776" r="8" opacity=".88"/>
    <circle cx="608" cy="776" r="8" opacity=".68"/>
  </g>
  <g fill="none" stroke-linecap="round" stroke-width="7" opacity=".8">
    <path d="M372 548C390 460 448 410 540 410s150 50 168 138" stroke="#00e5ff"/>
    <path d="M438 514c10-40 44-66 102-66s92 26 102 66" stroke="#ff2fb3"/>
  </g>
</svg>
