<svg xmlns="http://www.w3.org/2000/svg" width="1080" height="1080" viewBox="0 0 1080 1080">
  <defs>
    <linearGradient id="trunk" x1="0" y1="0" x2="1" y2="1">
      <stop offset="0%" stop-color="#051014"/>
      <stop offset="100%" stop-color="#000000"/>
    </linearGradient>
  </defs>
  <g fill="url(#trunk)" opacity=".92">
    <path d="M180 1030c70-210 92-440 52-690l62-10c64 252 68 486 10 700H180Z"/>
    <path d="M878 1030c-48-190-46-394 8-612l56 12c-34 222-20 420 68 600H878Z"/>
  </g>
  <g fill="#020306" opacity=".9">
    <path d="M250 338C162 250 88 210 0 212c86 74 156 124 250 126Z"/>
    <path d="M258 328C170 190 116 118 24 74c44 110 112 194 234 254Z"/>
    <path d="M278 320C250 160 252 70 300 0c36 112 34 216-22 320Z"/>
    <path d="M292 330c112-106 210-146 330-130-92 70-196 116-330 130Z"/>
    <path d="M296 350c136-26 238-8 338 62-112 24-226 4-338-62Z"/>
    <path d="M908 428c-108-86-204-118-320-92 98 62 202 92 320 92Z"/>
    <path d="M922 430c34-152 28-250-22-322-34 118-28 226 22 322Z"/>
    <path d="M930 446c104-92 184-124 296-112-86 62-174 98-296 112Z"/>
  </g>
</svg>
