<svg xmlns="http://www.w3.org/2000/svg" width="1080" height="1080" viewBox="0 0 1080 1080">
  <defs>
    <filter id="glow" x="-40%" y="-40%" width="180%" height="180%">
      <feGaussianBlur stdDeviation="5" result="b"/>
      <feMerge>
        <feMergeNode in="b"/>
        <feMergeNode in="SourceGraphic"/>
      </feMerge>
    </filter>
  </defs>
  <g filter="url(#glow)">
    <g fill="#f6c76a">
      <path d="M120 180l14 38 40 10-34 22 3 42-32-27-39 16 16-38-26-32 41 3 17-34Z"/>
      <path d="M816 142l10 28 30 8-26 16 2 32-24-20-30 12 12-30-20-24 32 2 14-24Z"/>
      <path d="M910 760l13 34 36 10-31 20 2 38-28-24-36 14 14-34-23-28 36 2 17-32Z"/>
      <path d="M246 808l9 25 26 7-22 14 2 28-21-18-26 10 10-26-17-20 27 1 12-21Z"/>
    </g>
    <g fill="#00e5ff">
      <circle cx="248" cy="286" r="10"/>
      <circle cx="774" cy="312" r="12"/>
      <circle cx="184" cy="636" r="9"/>
      <circle cx="602" cy="862" r="10"/>
      <circle cx="940" cy="426" r="8"/>
    </g>
    <g fill="#ff2fb3">
      <rect x="420" y="146" width="18" height="58" rx="9" transform="rotate(28 429 175)"/>
      <rect x="642" y="228" width="16" height="54" rx="8" transform="rotate(-36 650 255)"/>
      <rect x="330" y="664" width="17" height="60" rx="8" transform="rotate(-22 338 694)"/>
      <rect x="792" y="616" width="18" height="58" rx="9" transform="rotate(40 801 645)"/>
    </g>
    <g fill="none" stroke="#ffffff" stroke-width="5" stroke-linecap="round" opacity=".7">
      <path d="M522 202l44 44M566 202l-44 44"/>
      <path d="M714 812l38 38M752 812l-38 38"/>
      <path d="M98 468l34 34M132 468l-34 34"/>
    </g>
  </g>
</svg>
